<?xml version="1.0" encoding="UTF-8" standalone="no"?>
<!-- Created with Inkscape (http://www.inkscape.org/) -->

<svg
   xmlns:dc="http://purl.org/dc/elements/1.1/"
   xmlns:cc="http://creativecommons.org/ns#"
   xmlns:rdf="http://www.w3.org/1999/02/22-rdf-syntax-ns#"
   xmlns:svg="http://www.w3.org/2000/svg"
   xmlns="http://www.w3.org/2000/svg"
   xmlns:sodipodi="http://sodipodi.sourceforge.net/DTD/sodipodi-0.dtd"
   xmlns:inkscape="http://www.inkscape.org/namespaces/inkscape"
   width="620mm"
   height="140mm"
   viewBox="0 0 620 140"
   version="1.1"
   id="svg8"
   inkscape:version="0.92.4 (5da689c313, 2019-01-14)"
   sodipodi:docname="weirdwerkz site Logo.svg">
  <defs
     id="defs2" />
  <sodipodi:namedview
     id="base"
     pagecolor="#000000"
     bordercolor="#666666"
     borderopacity="1.0"
     inkscape:pageopacity="1"
     inkscape:pageshadow="2"
     inkscape:zoom="0.12374369"
     inkscape:cx="958.12033"
     inkscape:cy="379.89801"
     inkscape:document-units="mm"
     inkscape:current-layer="layer1"
     showgrid="false"
     showborder="true"
     inkscape:window-width="1366"
     inkscape:window-height="715"
     inkscape:window-x="-8"
     inkscape:window-y="-8"
     inkscape:window-maximized="1"
     inkscape:pagecheckerboard="true"
     width="605mm" />
  <metadata
     id="metadata5">
    <rdf:RDF>
      <cc:Work
         rdf:about="">
        <dc:format>image/svg+xml</dc:format>
        <dc:type
           rdf:resource="http://purl.org/dc/dcmitype/StillImage" />
        <dc:title />
      </cc:Work>
    </rdf:RDF>
  </metadata>
  <g
     inkscape:label="Layer 1"
     inkscape:groupmode="layer"
     id="layer1"
     transform="translate(0,-157)">
    <path
       id="path821"
       d="m 72.282871,163.54808 c -34.4729,0 -62.22566,27.75224 -62.22566,62.22514 v 5.54902 c 0,34.4729 27.75276,62.22566 62.22566,62.22566 H 552.83183 c 34.4729,0 62.22566,-27.75276 62.22566,-62.22566 v -5.54902 c 0,-34.4729 -27.75276,-62.22514 -62.22566,-62.22514 z m -1.47124,14.9996 H 554.30357 c 25.34773,0 45.7538,20.40659 45.7538,45.75431 v 8.49199 c 0,25.34773 -20.40607,45.7538 -45.7538,45.7538 H 70.811631 c -25.34772,0 -45.75431,-20.40607 -45.75431,-45.7538 v -8.49199 c 0,-25.34772 20.40659,-45.75431 45.75431,-45.75431 z m 429.423919,21.60023 -28.92381,2.05828 3.7915,2.88871 1.08314,44.81173 -5.45238,5.34386 27.04589,-1.40818 -3.97185,-2.23862 -4.94698,-16.03262 17.72966,14.26322 -2.88871,6.89673 19.17402,-7.61865 -20.7269,-21.66586 18.12706,-12.1326 -21.88238,-1.55287 2.20245,4.44159 -11.01328,12.34911 4.87515,-26.25111 z m -217.66683,0.1447 5.09117,3.93567 4.08037,20.40186 c -2.07027,-2.81652 -4.32121,-4.89908 -6.75256,-6.24716 -2.43136,-1.37216 -5.13954,-2.05828 -8.12457,-2.05828 -4.57384,0 -8.43748,1.85368 -11.59103,5.5609 -3.15352,3.68315 -4.72992,8.22081 -4.72992,13.61313 0,5.10344 1.88946,9.35275 5.66889,12.74702 3.77943,3.3702 8.76275,5.25967 14.94947,5.66891 l 24.12101,1.55287 -4.51394,-5.09167 0.43357,-46.07523 4.65811,-2.09444 z m -184.338079,1.19114 -37.62563,3.32228 6.64406,3.10523 5.84975,42.60929 -7.33028,3.03289 21.52116,1.15548 8.48579,-19.0655 8.304919,21.30464 27.80399,-5.2002 -10.00197,-2.56366 13.46843,-39.72006 7.3303,-3.39411 -35.85621,-2.38331 7.4383,3.86384 -1.6247,30.6927 -11.08563,-24.95145 -17.296619,25.24032 5.3082,-31.74018 z m 244.532339,0 -37.62612,3.32228 6.64403,3.10523 5.84978,42.60929 -7.33031,3.03289 21.52117,1.15548 8.48579,-19.0655 8.30543,21.30464 27.80399,-5.2002 -10.00249,-2.56366 13.46895,-39.72006 7.3303,-3.39411 -35.85673,-2.38331 7.43831,3.86384 -1.62471,30.6927 -11.08563,-24.95145 -17.2961,25.24032 5.30769,-31.74018 z m -142.30706,0.14469 c -4.04424,0 -7.34224,0.54143 -9.89397,1.62471 -2.55172,1.08328 -3.82715,2.44342 -3.82715,4.08037 0,1.63695 1.26385,2.99709 3.7915,4.08037 2.55172,1.05921 5.86131,1.58905 9.92962,1.58905 4.06832,0 7.36632,-0.52984 9.89397,-1.58905 2.52765,-1.08328 3.7915,-2.44342 3.7915,-4.08037 0,-1.63695 -1.26385,-2.99709 -3.7915,-4.08037 -2.52765,-1.08328 -5.82565,-1.62471 -9.89397,-1.62471 z m -41.77832,14.04669 c -3.05726,0 -5.86172,0.49354 -8.41344,1.48053 -2.52765,0.98699 -4.75439,2.4429 -6.68022,4.36873 -1.99804,1.99804 -3.55076,4.34527 -4.65811,7.04143 -1.08328,2.67208 -1.62471,5.45286 -1.62471,8.34161 0,5.46453 1.99786,9.8575 5.99395,13.17955 4.02017,3.29798 9.36444,4.94699 16.03262,4.94699 3.41834,0 6.72845,-0.49354 9.93014,-1.48053 3.20169,-0.98699 6.40341,-2.4913 9.6051,-4.51342 l 2.95537,5.45083 -1.07797,0.43511 1.29243,-0.0398 0.0801,0.1478 -0.0124,-0.14986 34.91725,-1.07901 -1.3596,1.12086 23.14587,-1.22783 c -2.02212,-1.82954 -3.47855,-3.56273 -4.36924,-5.19968 -0.8907,-1.66103 -1.33584,-3.43052 -1.33584,-5.3082 0,-2.98504 0.95079,-5.44065 2.85254,-7.36648 1.92583,-1.9499 4.38144,-2.92488 7.36648,-2.92488 2.33506,0 4.48971,0.50564 6.46369,1.5167 1.97397,1.01106 3.80345,2.55167 5.48855,4.62194 l 5.70508,-22.92935 -5.01933,4.65811 c -1.13143,-1.49251 -2.51525,-2.63587 -4.15221,-3.43028 -1.63695,-0.81848 -3.43065,-1.22783 -5.38055,-1.22783 -2.40728,0 -4.8508,0.68612 -7.3303,2.05827 -2.45543,1.37216 -5.04312,3.4784 -7.76335,6.319 l 3.03341,-8.23258 -18.27124,0.97462 5.70508,2.38332 -2.0221,31.92053 -2.41691,1.99316 -6.89932,-2.13734 -4.51341,-31.63166 11.55484,-4.08037 -36.03707,1.33584 9.85779,3.90002 -2.52749,30.76504 -6.73189,2.71715 -1.28467,-15.86105 c -1.6851,2.38321 -3.70716,4.2006 -6.0663,5.45238 -2.35914,1.25179 -4.94683,1.87792 -7.76335,1.87792 -2.311,0 -4.56193,-0.36146 -6.75256,-1.08365 -2.16656,-0.74626 -4.38119,-1.88962 -6.64404,-3.43028 1.03513,0.40924 2.11851,0.7223 3.24993,0.93896 1.13143,0.19258 2.34687,0.28887 3.64681,0.28887 5.27195,0 9.65333,-1.30015 13.1439,-3.90002 3.51463,-2.59987 5.27203,-5.82527 5.27203,-9.67693 0,-3.82758 -1.90209,-7.0051 -5.7056,-9.53275 -3.80351,-2.52765 -8.63003,-3.7915 -14.47973,-3.7915 z m 244.53234,0 c -3.05725,0 -5.86172,0.49354 -8.41344,1.48053 -2.52765,0.98699 -4.75439,2.4429 -6.68021,4.36873 -1.99805,1.99804 -3.55077,4.34527 -4.65812,7.04143 -1.08328,2.67208 -1.62522,5.45286 -1.62522,8.34161 0,5.46453 1.99837,9.8575 5.99446,13.17955 4.02017,3.29798 9.36392,4.94699 16.0321,4.94699 3.41834,0 6.72845,-0.49354 9.93014,-1.48053 3.20169,-0.98699 6.40341,-2.4913 9.6051,-4.51342 l 3.24993,5.99395 -1.33583,-16.50184 c -1.6851,2.38321 -3.70768,4.2006 -6.06682,5.45238 -2.35914,1.25179 -4.94682,1.87792 -7.76335,1.87792 -2.31099,0 -4.56193,-0.36146 -6.75256,-1.08365 -2.16655,-0.74626 -4.38119,-1.88962 -6.64403,-3.43028 1.03513,0.40924 2.1185,0.7223 3.24993,0.93896 1.13142,0.19258 2.34687,0.28887 3.6468,0.28887 5.27196,0 9.65334,-1.30015 13.1439,-3.90002 3.51464,-2.59987 5.27203,-5.82527 5.27203,-9.67693 0,-3.82758 -1.90157,-7.0051 -5.70508,-9.53275 -3.80351,-2.52765 -8.63003,-3.7915 -14.47973,-3.7915 z m 116.77738,0.0718 1.48053,20.40186 4.22455,-8.12457 12.78268,-2.59985 -19.0655,30.25966 41.34476,-3.75533 1.9141,-21.30464 -5.52473,8.70231 -18.48828,6.53603 25.85424,-27.08206 z m -62.39724,0.36122 c -2.40728,0 -4.85028,0.68612 -7.32979,2.05827 -2.45543,1.37215 -5.04363,3.4784 -7.76386,6.31899 l 3.03341,-8.23257 -18.27124,0.97462 5.70508,2.38332 -2.0221,31.92053 -4.11655,3.39462 23.14639,-1.22783 c -2.02212,-1.82954 -3.47854,-3.56273 -4.36924,-5.19968 -0.8907,-1.66103 -1.33635,-3.43052 -1.33635,-5.3082 0,-2.98504 0.95078,-5.44065 2.85254,-7.36648 1.92583,-1.9499 4.38144,-2.92489 7.36647,-2.92489 2.33507,0 4.48972,0.50565 6.46369,1.51671 1.97398,1.01106 3.80347,2.55167 5.48857,4.62194 l 5.70508,-22.92935 -5.01881,4.65811 c -1.13143,-1.49252 -2.51578,-2.63588 -4.15274,-3.43028 -1.63695,-0.81848 -3.43065,-1.22783 -5.38055,-1.22783 z m -300.53719,5.0555 c 0.50553,0.60182 0.87858,1.23954 1.11931,1.91358 0.24073,0.67404 0.36122,1.43225 0.36122,2.2748 0,1.73324 -0.60193,3.15389 -1.80558,4.26124 -1.20364,1.10735 -2.75635,1.66088 -4.65811,1.66088 -1.08328,0 -2.14245,-0.16838 -3.17758,-0.5054 -1.03514,-0.36109 -1.93803,-0.85463 -2.70836,-1.48053 1.03513,-2.31099 2.45577,-4.14047 4.26123,-5.48855 1.82954,-1.37215 4.03207,-2.25085 6.60787,-2.63602 z m 244.53182,0 c 0.50553,0.60182 0.87859,1.23954 1.11932,1.91358 0.24072,0.67404 0.36121,1.43225 0.36121,2.2748 0,1.73324 -0.60193,3.15389 -1.80557,4.26124 -1.20364,1.10735 -2.75636,1.66088 -4.65812,1.66088 -1.08327,0 -2.14245,-0.16838 -3.17758,-0.5054 -1.03513,-0.36109 -1.93751,-0.85463 -2.70784,-1.48053 1.03513,-2.31099 2.45525,-4.14047 4.26072,-5.48855 1.82953,-1.37215 4.03207,-2.25085 6.60786,-2.63602 z m -121.68817,3.03289 c 2.31099,0.72219 4.35725,1.92605 6.13864,3.61115 1.80546,1.6851 3.33398,3.85133 4.58576,6.49935 -0.77032,0.69811 -1.52853,1.20375 -2.27479,1.5167 -0.72219,0.31295 -1.5167,0.46974 -2.38332,0.46974 -2.04619,0 -3.82727,-0.74662 -5.34386,-2.23914 -1.51659,-1.51659 -2.27531,-3.33397 -2.27531,-5.45238 0,-0.8907 0.13259,-1.70889 0.39739,-2.45515 0.2648,-0.77033 0.64996,-1.42067 1.15549,-1.95027 z"
       style="opacity:1;fill:#4d4d4d;fill-opacity:1;stroke:none;stroke-width:2.60708427;stroke-miterlimit:4;stroke-dasharray:none;stroke-opacity:1"
       inkscape:connector-curvature="0" />
    <path
       style="opacity:1;fill:#00ff00;fill-opacity:1;stroke:none;stroke-width:2.60708427;stroke-miterlimit:4;stroke-dasharray:none;stroke-opacity:1"
       d="m 69.107858,163.54808 c -34.472906,0 -62.2256602,27.75224 -62.2256602,62.22514 v 5.54902 c 0,34.4729 27.7527542,62.22566 62.2256602,62.22566 H 549.65681 c 34.4729,0 62.22566,-27.75276 62.22566,-62.22566 v -5.54902 c 0,-34.4729 -27.75276,-62.22514 -62.22566,-62.22514 z m -1.471242,14.9996 H 551.12855 c 25.34773,0 45.7538,20.40659 45.7538,45.75431 v 8.49199 c 0,25.34773 -20.40607,45.7538 -45.7538,45.7538 H 67.636616 c -25.347718,0 -45.754316,-20.40607 -45.754316,-45.7538 v -8.49199 c 0,-25.34772 20.406598,-45.75431 45.754316,-45.75431 z m 429.423924,21.60023 -28.92382,2.05828 3.7915,2.88871 1.08314,44.81173 -5.45238,5.34386 27.04589,-1.40818 -3.97185,-2.23862 -4.94698,-16.03262 17.72967,14.26322 -2.88872,6.89673 19.17403,-7.61865 -20.7269,-21.66586 18.12705,-12.1326 -21.88238,-1.55287 2.20245,4.44159 -11.01328,12.34911 4.87515,-26.25111 z m -217.66682,0.1447 5.09116,3.93567 4.08037,20.40186 c -2.07026,-2.81652 -4.3212,-4.89908 -6.75255,-6.24716 -2.43136,-1.37216 -5.13954,-2.05828 -8.12457,-2.05828 -4.57385,0 -8.43748,1.85368 -11.59103,5.5609 -3.15354,3.68315 -4.72994,8.22081 -4.72994,13.61313 0,5.10344 1.88947,9.35275 5.6689,12.74702 3.77944,3.3702 8.76276,5.25967 14.94948,5.66891 l 24.12101,1.55287 -4.51394,-5.09167 0.43357,-46.07523 4.65811,-2.09444 z m -184.338095,1.19114 -37.625628,3.32228 6.644058,3.10523 5.849752,42.60929 -7.330281,3.03289 21.521155,1.15548 8.485796,-19.0655 8.304913,21.30464 27.80399,-5.2002 -10.00197,-2.56366 13.46843,-39.72006 7.3303,-3.39411 -35.85621,-2.38331 7.43831,3.86384 -1.62471,30.6927 -11.085638,-24.95145 -17.296606,25.24032 5.308203,-31.74018 z m 244.532355,0 -37.62613,3.32228 6.64404,3.10523 5.84977,42.60929 -7.3303,3.03289 21.52117,1.15548 8.48579,-19.0655 8.30543,21.30464 27.80399,-5.2002 -10.00249,-2.56366 13.46894,-39.72006 7.33031,-3.39411 -35.85673,-2.38331 7.43831,3.86384 -1.62471,30.6927 -11.08563,-24.95145 -17.2961,25.24032 5.30769,-31.74018 z m -142.30708,0.14469 c -4.04423,0 -7.34224,0.54143 -9.89396,1.62471 -2.55173,1.08328 -3.82716,2.44342 -3.82716,4.08037 0,1.63695 1.26385,2.99709 3.7915,4.08037 2.55172,1.05921 5.86131,1.58905 9.92962,1.58905 4.06832,0 7.36632,-0.52984 9.89398,-1.58905 2.52765,-1.08328 3.79149,-2.44342 3.79149,-4.08037 0,-1.63695 -1.26384,-2.99709 -3.79149,-4.08037 -2.52766,-1.08328 -5.82566,-1.62471 -9.89398,-1.62471 z m -41.77832,14.04669 c -3.05725,0 -5.86172,0.49354 -8.41344,1.48053 -2.52765,0.98699 -4.75439,2.4429 -6.68022,4.36872 -1.99804,1.99805 -3.55076,4.34528 -4.65811,7.04144 -1.08328,2.67208 -1.62471,5.45286 -1.62471,8.34161 0,5.46453 1.99786,9.8575 5.99395,13.17955 4.02017,3.29798 9.36444,4.94699 16.03262,4.94699 3.41834,0 6.72845,-0.49354 9.93014,-1.48053 3.20169,-0.98699 6.40341,-2.4913 9.6051,-4.51342 l 2.95537,5.45083 -1.07797,0.43511 1.29243,-0.0398 0.0801,0.1478 -0.0124,-0.14986 34.91725,-1.07901 -1.35961,1.12086 23.14588,-1.22783 c -2.02212,-1.82953 -3.47855,-3.56272 -4.36925,-5.19968 -0.89069,-1.66103 -1.33583,-3.43052 -1.33583,-5.3082 0,-2.98504 0.95078,-5.44065 2.85254,-7.36648 1.92582,-1.9499 4.38144,-2.92488 7.36647,-2.92488 2.33507,0 4.48972,0.50564 6.46369,1.5167 1.97398,1.01106 3.80346,2.55167 5.48856,4.62194 l 5.70507,-22.92935 -5.01933,4.65811 c -1.13142,-1.49251 -2.51525,-2.63587 -4.1522,-3.43028 -1.63696,-0.81848 -3.43065,-1.22783 -5.38055,-1.22783 -2.40728,0 -4.8508,0.68612 -7.3303,2.05827 -2.45543,1.37216 -5.04312,3.4784 -7.76335,6.319 l 3.0334,-8.23258 -18.27123,0.97462 5.70508,2.38332 -2.0221,31.92053 -2.41691,1.99316 -6.89932,-2.13734 -4.51342,-31.63166 11.55485,-4.08037 -36.03707,1.33584 9.85779,3.90002 -2.52749,30.76504 -6.73189,2.71715 -1.28468,-15.86105 c -1.6851,2.38322 -3.70715,4.2006 -6.0663,5.45238 -2.35913,1.25179 -4.94682,1.87792 -7.76334,1.87792 -2.311,0 -4.56193,-0.36146 -6.75256,-1.08365 -2.16656,-0.74626 -4.3812,-1.88962 -6.64404,-3.43028 1.03513,0.40924 2.1185,0.7223 3.24993,0.93896 1.13142,0.19258 2.34687,0.28887 3.6468,0.28887 5.27196,0 9.65334,-1.30015 13.1439,-3.90002 3.51464,-2.59987 5.27203,-5.82527 5.27203,-9.67693 0,-3.82758 -1.90208,-7.0051 -5.70559,-9.53275 -3.80351,-2.52765 -8.63003,-3.7915 -14.47973,-3.7915 z m 244.53236,0 c -3.05726,0 -5.86172,0.49354 -8.41344,1.48053 -2.52765,0.98699 -4.75439,2.4429 -6.68022,4.36872 -1.99804,1.99805 -3.55076,4.34528 -4.65811,7.04144 -1.08328,2.67208 -1.62522,5.45286 -1.62522,8.34161 0,5.46453 1.99837,9.8575 5.99446,13.17955 4.02017,3.29798 9.36392,4.94699 16.0321,4.94699 3.41834,0 6.72845,-0.49354 9.93014,-1.48053 3.20169,-0.98699 6.40341,-2.4913 9.6051,-4.51342 l 3.24993,5.99395 -1.33584,-16.50184 c -1.6851,2.38322 -3.70767,4.2006 -6.06681,5.45238 -2.35914,1.25179 -4.94682,1.87792 -7.76335,1.87792 -2.31099,0 -4.56193,-0.36146 -6.75256,-1.08365 -2.16656,-0.74626 -4.38119,-1.88962 -6.64404,-3.43028 1.03514,0.40924 2.11851,0.7223 3.24993,0.93896 1.13143,0.19258 2.34688,0.28887 3.64681,0.28887 5.27195,0 9.65334,-1.30015 13.1439,-3.90002 3.51464,-2.59987 5.27203,-5.82527 5.27203,-9.67693 0,-3.82758 -1.90157,-7.0051 -5.70508,-9.53275 -3.80351,-2.52765 -8.63003,-3.7915 -14.47973,-3.7915 z m 116.77736,0.0718 1.48053,20.40186 4.22455,-8.12457 12.78268,-2.59984 -19.0655,30.25965 41.34476,-3.75533 1.9141,-21.30464 -5.52473,8.70231 -18.48828,6.53603 25.85424,-27.08206 z m -62.39722,0.36122 c -2.40729,0 -4.85028,0.68612 -7.32979,2.05827 -2.45543,1.37216 -5.04363,3.4784 -7.76386,6.319 l 3.0334,-8.23258 -18.27123,0.97462 5.70508,2.38332 -2.0221,31.92053 -4.11655,3.39462 23.14639,-1.22783 c -2.02212,-1.82953 -3.47855,-3.56272 -4.36924,-5.19968 -0.8907,-1.66103 -1.33635,-3.43052 -1.33635,-5.3082 0,-2.98504 0.95078,-5.44065 2.85254,-7.36648 1.92582,-1.9499 4.38144,-2.92488 7.36647,-2.92488 2.33507,0 4.48972,0.50564 6.46369,1.5167 1.97397,1.01106 3.80345,2.55167 5.48855,4.62194 l 5.70508,-22.92935 -5.01881,4.65811 c -1.13143,-1.49251 -2.51577,-2.63587 -4.15272,-3.43028 -1.63696,-0.81848 -3.43065,-1.22783 -5.38055,-1.22783 z m -300.53721,5.0555 c 0.50553,0.60183 0.87858,1.23954 1.11931,1.91358 0.24073,0.67404 0.36122,1.43225 0.36122,2.2748 0,1.73324 -0.60193,3.15389 -1.80557,4.26124 -1.20365,1.10735 -2.75636,1.66088 -4.65812,1.66088 -1.08328,0 -2.14245,-0.16838 -3.17758,-0.5054 -1.03513,-0.36109 -1.93803,-0.85463 -2.70836,-1.48053 1.03513,-2.31099 2.45577,-4.14047 4.26124,-5.48855 1.82953,-1.37215 4.03207,-2.25085 6.60786,-2.63602 z m 244.53184,0 c 0.50553,0.60183 0.87859,1.23954 1.11931,1.91358 0.24073,0.67404 0.36122,1.43225 0.36122,2.2748 0,1.73324 -0.60193,3.15389 -1.80557,4.26124 -1.20365,1.10735 -2.75636,1.66088 -4.65812,1.66088 -1.08328,0 -2.14245,-0.16838 -3.17758,-0.5054 -1.03513,-0.36109 -1.93751,-0.85463 -2.70785,-1.48053 1.03514,-2.31099 2.45526,-4.14047 4.26073,-5.48855 1.82953,-1.37215 4.03207,-2.25085 6.60786,-2.63602 z m -121.68818,3.03289 c 2.311,0.72219 4.35726,1.92605 6.13865,3.61115 1.80546,1.6851 3.33398,3.85133 4.58576,6.49935 -0.77033,0.69811 -1.52854,1.20375 -2.27479,1.5167 -0.72219,0.31295 -1.5167,0.46974 -2.38332,0.46974 -2.04619,0 -3.82727,-0.74662 -5.34386,-2.23914 -1.51659,-1.51659 -2.27531,-3.33397 -2.27531,-5.45238 0,-0.89069 0.13259,-1.70889 0.39739,-2.45515 0.2648,-0.77033 0.64995,-1.42066 1.15548,-1.95027 z"
       id="rect824"
       inkscape:connector-curvature="0"
       inkscape:export-xdpi="96"
       inkscape:export-ydpi="96" />
  </g>
</svg>
